<svg width="56" height="56" viewBox="0 0 56 56" fill="none" xmlns="http://www.w3.org/2000/svg">
<path opacity="0.25" d="M28 33.1216C27.5893 33.1216 27.188 33.0143 26.8333 32.8113L5.83334 20.6826C5.47866 20.4778 5.18413 20.1833 4.97936 19.8286C4.77458 19.4739 4.66678 19.0715 4.66678 18.662C4.66678 18.2524 4.77458 17.8501 4.97936 17.4954C5.18413 17.1407 5.47866 16.8461 5.83334 16.6413L26.8333 4.52197C27.5567 4.10897 28.4433 4.10897 29.1667 4.52197L50.1667 16.6413C50.5214 16.8461 50.8159 17.1407 51.0207 17.4954C51.2254 17.8501 51.3332 18.2524 51.3332 18.662C51.3332 19.0715 51.2254 19.4739 51.0207 19.8286C50.8159 20.1833 50.5214 20.4778 50.1667 20.6826L29.1667 32.8113C28.8117 33.0151 28.4094 33.1221 28 33.1216Z" fill="#2D76F9"/>
<path opacity="0.5" d="M50.1667 25.9747L45.584 23.3287L29.1667 32.8113C28.4433 33.2267 27.5567 33.2267 26.8333 32.8113L10.416 23.3287L5.83334 25.9747C5.47866 26.1795 5.18413 26.474 4.97936 26.8287C4.77458 27.1834 4.66678 27.5858 4.66678 27.9953C4.66678 28.4049 4.77458 28.8073 4.97936 29.162C5.18413 29.5167 5.47866 29.8112 5.83334 30.016L26.8333 42.1447C27.5567 42.56 28.4433 42.56 29.1667 42.1447L50.1667 30.016C50.5214 29.8112 50.8159 29.5167 51.0207 29.162C51.2254 28.8073 51.3332 28.4049 51.3332 27.9953C51.3332 27.5858 51.2254 27.1834 51.0207 26.8287C50.8159 26.474 50.5214 26.1795 50.1667 25.9747Z" fill="#2D76F9"/>
<path d="M50.1667 35.308L45.584 32.662L29.1667 42.1447C28.4433 42.56 27.5567 42.56 26.8333 42.1447L10.416 32.662L5.83334 35.308C5.47866 35.5128 5.18413 35.8073 4.97936 36.162C4.77458 36.5167 4.66678 36.9191 4.66678 37.3287C4.66678 37.7382 4.77458 38.1406 4.97936 38.4953C5.18413 38.85 5.47866 39.1445 5.83334 39.3493L26.8333 51.478C27.5567 51.8933 28.4433 51.8933 29.1667 51.478L50.1667 39.3493C50.5214 39.1445 50.8159 38.85 51.0207 38.4953C51.2254 38.1406 51.3332 37.7382 51.3332 37.3287C51.3332 36.9191 51.2254 36.5167 51.0207 36.162C50.8159 35.8073 50.5214 35.5128 50.1667 35.308Z" fill="#2D76F9"/>
</svg>
